<svg width="60" height="60" viewBox="0 0 60 60" fill="none" xmlns="http://www.w3.org/2000/svg">
<path d="M53.8324 17.7794C53.8705 18.3123 53.8705 18.8454 53.8705 19.3784C53.8705 35.6346 41.4975 54.3657 18.8832 54.3657C11.9162 54.3657 5.44418 52.3478 0 48.8454C0.989883 48.9596 1.94156 48.9977 2.96953 48.9977C8.71816 48.9977 14.0101 47.0561 18.236 43.7439C12.8299 43.6296 8.29945 40.0891 6.73852 35.2159C7.5 35.3301 8.26137 35.4062 9.06094 35.4062C10.165 35.4062 11.2691 35.2539 12.297 34.9875C6.66246 33.8453 2.43645 28.8961 2.43645 22.919V22.7668C4.07344 23.6805 5.97715 24.2515 7.99477 24.3276C4.68258 22.1194 2.51262 18.3504 2.51262 14.0864C2.51262 11.8022 3.12164 9.70832 4.1877 7.8809C10.241 15.3428 19.34 20.2158 29.543 20.7489C29.3527 19.8352 29.2384 18.8835 29.2384 17.9317C29.2384 11.155 34.7207 5.63477 41.5354 5.63477C45.0759 5.63477 48.2739 7.11953 50.5201 9.51801C53.2992 8.98504 55.9642 7.95707 58.3247 6.54848C57.4109 9.40387 55.4693 11.8023 52.9186 13.3251C55.3932 13.0587 57.7917 12.3733 59.9998 11.4216C58.3249 13.858 56.2309 16.028 53.8324 17.7794Z" fill="black"/>
</svg>
