<svg width="371" height="48" viewBox="0 0 371 48" fill="none" xmlns="http://www.w3.org/2000/svg">
<g clip-path="url(#clip0_48_87)">
<path d="M31.0464 33.9198C31.0464 41.5587 24.2789 47.7712 15.9575 47.7712C7.63609 47.7712 0.868547 41.5587 0.868547 33.9198C0.868547 32.2332 2.35887 30.8652 4.19612 30.8652C6.03338 30.8652 7.5237 32.2332 7.5237 33.9198C7.5237 38.1901 11.3106 41.6664 15.9623 41.6664C20.6141 41.6664 24.401 38.1901 24.401 33.9198C24.401 32.2332 25.8913 30.8652 27.7286 30.8652C29.5658 30.8652 31.0464 32.2332 31.0464 33.9198ZM27.7188 0.00897988C25.8815 0.00897988 24.3912 1.37708 24.3912 3.06365V13.1651C24.3912 17.4354 20.6044 20.9117 15.9526 20.9117C11.3008 20.9117 7.51392 17.4354 7.51392 13.1651V3.06365C7.51392 1.37708 6.02359 0.00897988 4.18634 0.00897988C2.34909 0.00897988 0.858765 1.37708 0.858765 3.06365V13.1651C0.858765 20.8041 7.62631 27.0165 15.9477 27.0165C24.2691 27.0165 31.0366 20.8041 31.0366 13.1651V3.06365C31.0464 1.37708 29.5561 0.00897988 27.7188 0.00897988ZM136.063 13.4746C136.063 6.05104 129.295 0.00897988 120.974 0.00897988H109.213C107.375 0.00897988 105.885 1.37708 105.885 3.06365C105.885 4.75022 107.375 6.11831 109.213 6.11831H120.974C125.626 6.11831 129.413 9.41967 129.413 13.4791C129.413 17.5385 125.626 20.8399 120.974 20.8399H109.213C107.375 20.8399 105.885 22.208 105.885 23.8946C105.885 25.5812 107.375 26.9493 109.213 26.9493H120.974C125.626 26.9493 129.413 30.2506 129.413 34.3101C129.413 38.3695 125.626 41.6709 120.974 41.6709H109.213C107.375 41.6709 105.885 43.039 105.885 44.7256C105.885 46.4121 107.375 47.7802 109.213 47.7802H120.974C129.295 47.7802 136.063 41.7382 136.063 34.3146C136.063 30.1206 133.903 26.3706 130.532 23.8991C133.908 21.4186 136.063 17.6686 136.063 13.4746ZM66.047 13.8604V33.9198C66.047 41.5587 59.2795 47.7712 50.9581 47.7712C42.6367 47.7712 35.8692 41.5587 35.8692 33.9198V13.8604C35.8692 6.22149 42.6367 0.00897988 50.9581 0.00897988C59.2746 0.00897988 66.047 6.22149 66.047 13.8604ZM59.3919 13.8604C59.3919 9.59014 55.605 6.11382 50.9532 6.11382C46.3015 6.11382 42.5146 9.59014 42.5146 13.8604V33.9198C42.5146 38.1901 46.3015 41.6664 50.9532 41.6664C55.605 41.6664 59.3919 38.1901 59.3919 33.9198V13.8604ZM101.043 13.8604V33.9198C101.043 41.5587 94.2753 47.7712 85.9539 47.7712C77.6325 47.7712 70.8649 41.5587 70.8649 33.9198V13.8604C70.8649 6.22149 77.6325 0.00897988 85.9539 0.00897988C94.2753 0.00897988 101.043 6.22149 101.043 13.8604ZM94.3925 13.8604C94.3925 9.59014 90.6056 6.11382 85.9539 6.11382C81.3021 6.11382 77.5152 9.59014 77.5152 13.8604V33.9198C77.5152 38.1901 81.3021 41.6664 85.9539 41.6664C90.6056 41.6664 94.3925 38.1901 94.3925 33.9198V13.8604ZM155.975 6.11382H167.736C169.573 6.11382 171.064 4.74573 171.064 3.05916C171.064 1.37259 169.573 0.00448994 167.736 0.00448994H155.975C147.653 0.00448994 140.886 6.04655 140.886 13.4702C140.886 17.6642 143.046 21.4141 146.417 23.8856C143.041 26.3572 140.886 30.1071 140.886 34.3011C140.886 41.7247 147.653 47.7667 155.975 47.7667H167.736C169.573 47.7667 171.064 46.3987 171.064 44.7121C171.064 43.0255 169.573 41.6574 167.736 41.6574H155.975C151.323 41.6574 147.536 38.3561 147.536 34.2966C147.536 30.2372 151.323 26.9358 155.975 26.9358H167.736C169.573 26.9358 171.064 25.5677 171.064 23.8811C171.064 22.1946 169.573 20.8265 167.736 20.8265H155.975C151.323 20.8265 147.536 17.5251 147.536 13.4657C147.536 9.4152 151.323 6.11382 155.975 6.11382ZM190.975 26.9403H202.737C204.574 26.9403 206.064 25.5722 206.064 23.8856C206.064 22.199 204.574 20.831 202.737 20.831H190.975C186.324 20.831 182.537 17.5296 182.537 13.4702C182.537 9.41072 186.324 6.10933 190.975 6.10933H202.737C204.574 6.10933 206.064 4.74124 206.064 3.05467C206.064 1.3681 204.574 0 202.737 0H190.975C182.654 0 175.886 6.04206 175.886 13.4657C175.886 17.6597 178.046 21.4096 181.418 23.8811C178.041 26.3527 175.886 30.1026 175.886 34.2966C175.886 41.7202 182.654 47.7623 190.975 47.7623H202.737C204.574 47.7623 206.064 46.3942 206.064 44.7076C206.064 43.021 204.574 41.6529 202.737 41.6529H190.975C186.324 41.6529 182.537 38.3516 182.537 34.2921C182.537 30.2327 186.324 26.9403 190.975 26.9403Z" fill="black"/>
<path d="M240.264 0.538086C244.177 0.538086 246.757 2.50724 247.178 5.67854H244.002C243.684 3.98299 242.213 3.09037 240.308 3.09037C237.864 3.09037 236.257 4.49435 236.257 7.13634C236.257 9.79628 237.864 11.2003 240.308 11.2003C242.213 11.2003 243.684 10.2897 244.002 8.59415H247.178C246.762 11.7834 244.177 13.7526 240.264 13.7526C235.812 13.7526 233.071 10.8908 233.071 7.13187C233.071 3.39988 235.812 0.538086 240.264 0.538086Z" fill="black"/>
<path d="M255.714 0.538086C260.141 0.538086 262.843 3.39987 262.843 7.14083C262.843 10.8952 260.141 13.7615 255.714 13.7615C251.263 13.7615 248.565 10.8997 248.565 7.14083C248.565 3.39987 251.263 0.538086 255.714 0.538086ZM255.714 11.2048C258.358 11.2048 259.667 9.61686 259.667 7.14083C259.667 4.67826 258.358 3.09486 255.714 3.09486C253.071 3.09486 251.742 4.68275 251.742 7.14083C251.742 9.61686 253.071 11.2048 255.714 11.2048Z" fill="black"/>
<path d="M276.212 12.0437V0.722168H279.388V11.0255H286.2V13.5778H277.917C276.828 13.5912 276.212 13.044 276.212 12.0437Z" fill="black"/>
<path d="M264.632 12.0437V0.722168H267.808V11.0255H274.619V13.5778H266.337C265.247 13.5912 264.632 13.044 264.632 12.0437Z" fill="black"/>
<path d="M287.788 0.717285H297.78V3.26957H290.969V5.85774H296.788V8.41002H290.969V11.0161H297.78V13.5684H287.788V0.717285Z" fill="black"/>
<path d="M305.628 0.538086C309.146 0.538086 311.863 2.50724 312.283 5.31521H309.107C308.789 3.80357 307.734 3.09037 305.633 3.09037C303.189 3.09037 301.758 4.31044 301.758 7.13634C301.758 9.98019 302.891 11.2003 305.193 11.2003C307.098 11.2003 308.291 10.3256 308.291 8.59415H305.051V6.40519H312.361C313.456 6.40519 314.052 6.95244 314.052 7.95721V13.5731H310.876V9.14139L311.472 7.13634H310.675C310.656 11.1644 308.926 13.757 305.076 13.757C300.883 13.757 298.582 11.0747 298.582 7.13634C298.577 3.21596 301.577 0.538086 305.628 0.538086Z" fill="black"/>
<path d="M315.635 0.717285H325.627V3.26957H318.816V5.85774H324.635V8.41002H318.816V11.0161H325.627V13.5684H315.635V0.717285Z" fill="black"/>
<path d="M240.22 17.6548C244.647 17.6548 247.349 20.5166 247.349 24.2575C247.349 28.012 244.647 30.8782 240.22 30.8782C235.768 30.8782 233.071 28.0164 233.071 24.2575C233.071 20.5211 235.773 17.6548 240.22 17.6548ZM240.22 28.3215C242.863 28.3215 244.173 26.7336 244.173 24.2575C244.173 21.795 242.863 20.2116 240.22 20.2116C237.576 20.2116 236.247 21.7995 236.247 24.2575C236.247 26.7381 237.581 28.3215 240.22 28.3215Z" fill="black"/>
<path d="M249.137 17.8389H259.13V20.3912H252.318V24.0917L258.675 23.7284V26.3166L252.318 26.6799V30.69H249.142V17.8389H249.137Z" fill="black"/>
<path d="M273.192 17.6548C277.106 17.6548 279.686 19.624 280.107 22.7952H276.93C276.613 21.0997 275.142 20.2071 273.236 20.2071C270.793 20.2071 269.186 21.6111 269.186 24.2531C269.186 26.913 270.793 28.317 273.236 28.317C275.142 28.317 276.613 27.4064 276.93 25.7109H280.107C279.691 28.9001 277.106 30.8693 273.192 30.8693C268.741 30.8693 266 28.0075 266 24.2486C266 20.5211 268.741 17.6548 273.192 17.6548Z" fill="black"/>
<path d="M281.89 17.8389H287.314C290.651 17.8389 293.549 18.5521 293.549 21.4318C293.549 23.549 291.682 24.1321 289.991 24.3115V25.0427H292.039C293.133 25.0427 293.73 25.5899 293.73 26.5947V30.699H290.553V26.1775H285.071V30.699H281.895V17.8389H281.89ZM287.314 23.6208C289.2 23.6208 290.373 23.6208 290.373 22.0149C290.373 20.3912 289.2 20.3912 287.314 20.3912H285.071V23.6208H287.314Z" fill="black"/>
<path d="M295.714 17.8389H305.706V20.3912H298.894V22.9793H304.714V25.5316H298.894V28.1377H305.706V30.69H295.714V17.8389Z" fill="black"/>
<path d="M317.047 26.5722H311.364L310.113 30.6945H306.893L310.925 17.8389H317.477L321.528 30.6945H318.308L317.047 26.5722ZM316.275 24.02L314.609 18.57H313.812L312.146 24.02H316.275Z" fill="black"/>
<path d="M332.283 20.3912H327.714V30.6945H324.538V20.3912H319.95V17.8389H332.283V20.3912Z" fill="black"/>
<path d="M340.228 20.3912V28.1422H343.404V30.6945H333.871V28.1422H337.047V20.3912H333.871V17.8389H343.404V20.3912H340.228Z" fill="black"/>
<path d="M348.012 17.8389L351.706 29.9633H352.502L356.216 17.8389H359.436L355.385 30.6945H348.832L344.801 17.8389H348.012Z" fill="black"/>
<path d="M360.623 17.8389H370.616V20.3912H363.804V22.9793H369.624V25.5316H363.804V28.1377H370.616V30.69H360.623V17.8389Z" fill="black"/>
<path d="M239.428 37.5127V45.2638H242.604V47.8161H233.071V45.2638H236.247V37.5127H233.071V34.9604H242.604V37.5127H239.428Z" fill="black"/>
<path d="M244.432 34.9601H250.691L254.923 47.0845H255.719L255.123 45.2589V34.9556H258.299V47.8112H252.044L247.813 35.6867H247.017L247.613 37.5123V47.8157H244.437V34.9601H244.432Z" fill="black"/>
<path d="M260.322 34.9601H266.576L270.808 47.0845H271.604L271.008 45.2589V34.9556H274.184V47.8112H267.93L263.698 35.6867H262.902L263.498 37.5123V47.8157H260.322V34.9601Z" fill="black"/>
<path d="M282.965 34.7764C287.392 34.7764 290.094 37.6381 290.094 41.3791C290.094 45.1335 287.392 47.9998 282.965 47.9998C278.514 47.9998 275.816 45.138 275.816 41.3791C275.812 37.6381 278.514 34.7764 282.965 34.7764ZM282.965 45.443C285.609 45.443 286.918 43.8551 286.918 41.3791C286.918 38.9165 285.609 37.3331 282.965 37.3331C280.322 37.3331 278.993 38.921 278.993 41.3791C278.993 43.8551 280.322 45.443 282.965 45.443Z" fill="black"/>
<path d="M293.749 34.9604L297.443 47.0849H298.24L301.953 34.9604H305.173L301.123 47.8161H294.57L290.539 34.9604H293.749Z" fill="black"/>
<path d="M313.573 43.6939H307.89L306.639 47.8161H303.419L307.45 34.9604H314.003L318.054 47.8161H314.834L313.573 43.6939ZM312.796 41.1416L311.13 35.6916H310.333L308.667 41.1416H312.796Z" fill="black"/>
<path d="M328.847 37.5127H324.279V47.8161H321.103V37.5127H316.514V34.9604H328.847V37.5127Z" fill="black"/>
<path d="M336.832 37.5127V45.2638H340.008V47.8161H330.475V45.2638H333.651V37.5127H330.475V34.9604H340.008V37.5127H336.832Z" fill="black"/>
<path d="M347.792 34.7764C352.219 34.7764 354.921 37.6381 354.921 41.3791C354.921 45.1335 352.219 47.9998 347.792 47.9998C343.34 47.9998 340.643 45.138 340.643 41.3791C340.643 37.6381 343.345 34.7764 347.792 34.7764ZM347.792 45.443C350.435 45.443 351.745 43.8551 351.745 41.3791C351.745 38.9165 350.435 37.3331 347.792 37.3331C345.148 37.3331 343.819 38.921 343.819 41.3791C343.819 43.8551 345.153 45.443 347.792 45.443Z" fill="black"/>
<path d="M356.748 34.9601H363.003L367.234 47.0845H368.031L367.435 45.2589V34.9556H370.611V47.8112H364.351L360.12 35.6867H359.323L359.92 37.5123V47.8157H356.743V34.9601H356.748Z" fill="black"/>
</g>
<defs>
<clipPath id="clip0_48_87">
<rect width="369.757" height="48" fill="white" transform="translate(0.858765)"/>
</clipPath>
</defs>
</svg>
